<svg xmlns="http://www.w3.org/2000/svg" xmlns:xlink="http://www.w3.org/1999/xlink" contentStyleType="text/css" data-diagram-type="DESCRIPTION" height="1670px" preserveAspectRatio="none" style="width:734px;height:1670px;background:#FFFFFF;" version="1.1" viewBox="0 0 734 1670" width="734px" zoomAndPan="magnify"><title>NovaPay &#8212; CI/CD Pipeline</title><defs/><g><g class="title" data-source-line="75"><text fill="#000000" font-family="sans-serif" font-size="14" font-weight="bold" lengthAdjust="spacing" textLength="203.4922" x="258.2539" y="22.9951">NovaPay &#8212; CI/CD Pipeline</text></g><!--cluster dev--><g class="cluster" data-entity="dev" data-source-line="77" data-uid="ent0002" id="cluster_dev"><polygon fill="none" points="32,53.2969,42,43.2969,177,43.2969,177,130.2969,167,140.2969,32,140.2969,32,53.2969" style="stroke:#181818;stroke-width:1;"/><line style="stroke:#181818;stroke-width:1;" x1="167" x2="177" y1="53.2969" y2="43.2969"/><line style="stroke:#181818;stroke-width:1;" x1="32" x2="167" y1="53.2969" y2="53.2969"/><line style="stroke:#181818;stroke-width:1;" x1="167" x2="167" y1="53.2969" y2="140.2969"/><text fill="#000000" font-family="sans-serif" font-size="12" font-weight="bold" lengthAdjust="spacing" textLength="69.0645" x="65.9678" y="67.4355">Developer</text></g><!--cluster gh--><g class="cluster" data-entity="gh" data-source-line="81" data-uid="ent0004" id="cluster_gh"><polygon fill="none" points="22,197.2969,32,187.2969,186,187.2969,186,393.2969,176,403.2969,22,403.2969,22,197.2969" style="stroke:#181818;stroke-width:1;"/><line style="stroke:#181818;stroke-width:1;" x1="176" x2="186" y1="197.2969" y2="187.2969"/><line style="stroke:#181818;stroke-width:1;" x1="22" x2="176" y1="197.2969" y2="197.2969"/><line style="stroke:#181818;stroke-width:1;" x1="176" x2="176" y1="197.2969" y2="403.2969"/><text fill="#000000" font-family="sans-serif" font-size="12" font-weight="bold" lengthAdjust="spacing" textLength="46.875" x="76.5625" y="211.4355">GitHub</text></g><!--cluster build--><g class="cluster" data-entity="build" data-source-line="86" data-uid="ent0007" id="cluster_build"><polygon fill="none" points="17,446.2969,27,436.2969,191,436.2969,191,866.2969,181,876.2969,17,876.2969,17,446.2969" style="stroke:#181818;stroke-width:1;"/><line style="stroke:#181818;stroke-width:1;" x1="181" x2="191" y1="446.2969" y2="436.2969"/><line style="stroke:#181818;stroke-width:1;" x1="17" x2="181" y1="446.2969" y2="446.2969"/><line style="stroke:#181818;stroke-width:1;" x1="181" x2="181" y1="446.2969" y2="876.2969"/><text fill="#000000" font-family="sans-serif" font-size="12" font-weight="bold" lengthAdjust="spacing" textLength="82.5293" x="58.7354" y="460.4355">Build &amp; Test</text></g><!--cluster art--><g class="cluster" data-entity="art" data-source-line="93" data-uid="ent0012" id="cluster_art"><polygon fill="none" points="16,919.2969,26,909.2969,315,909.2969,315,1010.2969,305,1020.2969,16,1020.2969,16,919.2969" style="stroke:#181818;stroke-width:1;"/><line style="stroke:#181818;stroke-width:1;" x1="305" x2="315" y1="919.2969" y2="909.2969"/><line style="stroke:#181818;stroke-width:1;" x1="16" x2="305" y1="919.2969" y2="919.2969"/><line style="stroke:#181818;stroke-width:1;" x1="305" x2="305" y1="919.2969" y2="1020.2969"/><text fill="#000000" font-family="sans-serif" font-size="12" font-weight="bold" lengthAdjust="spacing" textLength="92.0801" x="115.46" y="933.4355">Artifact Store</text></g><!--cluster envs--><g class="cluster" data-entity="envs" data-source-line="98" data-uid="ent0015" id="cluster_envs"><polygon fill="none" points="145,1077.2969,155,1067.2969,527,1067.2969,527,1522.2969,517,1532.2969,145,1532.2969,145,1077.2969" style="stroke:#181818;stroke-width:1;"/><line style="stroke:#181818;stroke-width:1;" x1="517" x2="527" y1="1077.2969" y2="1067.2969"/><line style="stroke:#181818;stroke-width:1;" x1="145" x2="517" y1="1077.2969" y2="1077.2969"/><line style="stroke:#181818;stroke-width:1;" x1="517" x2="517" y1="1077.2969" y2="1532.2969"/><text fill="#000000" font-family="sans-serif" font-size="12" font-weight="bold" lengthAdjust="spacing" textLength="93.4453" x="285.2773" y="1091.4355">Environments</text></g><!--cluster stg--><g class="cluster" data-entity="stg" data-source-line="99" data-uid="ent0016" id="cluster_stg"><polygon fill="none" points="169,1122.2969,179,1112.2969,315,1112.2969,315,1354.7969,305,1364.7969,169,1364.7969,169,1122.2969" style="stroke:#181818;stroke-width:1;"/><line style="stroke:#181818;stroke-width:1;" x1="305" x2="315" y1="1122.2969" y2="1112.2969"/><line style="stroke:#181818;stroke-width:1;" x1="169" x2="305" y1="1122.2969" y2="1122.2969"/><line style="stroke:#181818;stroke-width:1;" x1="305" x2="305" y1="1122.2969" y2="1364.7969"/><text fill="#000000" font-family="sans-serif" font-size="12" font-weight="bold" lengthAdjust="spacing" textLength="52.3125" x="211.8438" y="1136.4355">Staging</text></g><!--cluster prod--><g class="cluster" data-entity="prod" data-source-line="103" data-uid="ent0019" id="cluster_prod"><polygon fill="none" points="339,1278.2969,349,1268.2969,503,1268.2969,503,1498.2969,493,1508.2969,339,1508.2969,339,1278.2969" style="stroke:#181818;stroke-width:1;"/><line style="stroke:#181818;stroke-width:1;" x1="493" x2="503" y1="1278.2969" y2="1268.2969"/><line style="stroke:#181818;stroke-width:1;" x1="339" x2="493" y1="1278.2969" y2="1278.2969"/><line style="stroke:#181818;stroke-width:1;" x1="493" x2="493" y1="1278.2969" y2="1508.2969"/><text fill="#000000" font-family="sans-serif" font-size="12" font-weight="bold" lengthAdjust="spacing" textLength="73.8398" x="380.0801" y="1292.4355">Production</text></g><!--cluster obs--><g class="cluster" data-entity="obs" data-source-line="109" data-uid="ent0022" id="cluster_obs"><polygon fill="none" points="551,1421.7969,561,1411.7969,717,1411.7969,717,1643.2969,707,1653.2969,551,1653.2969,551,1421.7969" style="stroke:#181818;stroke-width:1;"/><line style="stroke:#181818;stroke-width:1;" x1="707" x2="717" y1="1421.7969" y2="1411.7969"/><line style="stroke:#181818;stroke-width:1;" x1="551" x2="707" y1="1421.7969" y2="1421.7969"/><line style="stroke:#181818;stroke-width:1;" x1="707" x2="707" y1="1421.7969" y2="1653.2969"/><text fill="#000000" font-family="sans-serif" font-size="12" font-weight="bold" lengthAdjust="spacing" textLength="90.3984" x="584.8008" y="1435.9355">Observability</text></g><!--entity local--><g class="entity" data-entity="local" data-source-line="78" data-uid="ent0003" id="entity_local"><rect fill="#F1F1F1" height="43.9688" rx="2.5" ry="2.5" style="stroke:#181818;stroke-width:0.5;" width="98.8516" x="54.5" y="80.2969"/><rect fill="#F1F1F1" height="10" style="stroke:#181818;stroke-width:0.5;" width="15" x="133.3516" y="85.2969"/><rect fill="#F1F1F1" height="2" style="stroke:#181818;stroke-width:0.5;" width="4" x="131.3516" y="87.2969"/><rect fill="#F1F1F1" height="2" style="stroke:#181818;stroke-width:0.5;" width="4" x="131.3516" y="91.2969"/><text fill="#000000" font-family="sans-serif" font-size="12" lengthAdjust="spacing" textLength="58.8516" x="69.5" y="111.4355">Local Dev</text></g><!--entity repo--><g class="entity" data-entity="repo" data-source-line="82" data-uid="ent0005" id="entity_repo"><rect fill="#F1F1F1" height="43.9688" rx="2.5" ry="2.5" style="stroke:#181818;stroke-width:0.5;" width="104.3477" x="52" y="224.2969"/><rect fill="#F1F1F1" height="10" style="stroke:#181818;stroke-width:0.5;" width="15" x="136.3477" y="229.2969"/><rect fill="#F1F1F1" height="2" style="stroke:#181818;stroke-width:0.5;" width="4" x="134.3477" y="231.2969"/><rect fill="#F1F1F1" height="2" style="stroke:#181818;stroke-width:0.5;" width="4" x="134.3477" y="235.2969"/><text fill="#000000" font-family="sans-serif" font-size="12" lengthAdjust="spacing" textLength="64.3477" x="67" y="255.4355">Repository</text></g><!--entity runner--><g class="entity" data-entity="runner" data-source-line="83" data-uid="ent0006" id="entity_runner"><rect fill="#F1F1F1" height="43.9688" rx="2.5" ry="2.5" style="stroke:#181818;stroke-width:0.5;" width="131.3301" x="38.5" y="343.2969"/><rect fill="#F1F1F1" height="10" style="stroke:#181818;stroke-width:0.5;" width="15" x="149.8301" y="348.2969"/><rect fill="#F1F1F1" height="2" style="stroke:#181818;stroke-width:0.5;" width="4" x="147.8301" y="350.2969"/><rect fill="#F1F1F1" height="2" style="stroke:#181818;stroke-width:0.5;" width="4" x="147.8301" y="354.2969"/><text fill="#000000" font-family="sans-serif" font-size="12" lengthAdjust="spacing" textLength="91.3301" x="53.5" y="374.4355">Actions Runner</text></g><!--entity unit--><g class="entity" data-entity="unit" data-source-line="87" data-uid="ent0008" id="entity_unit"><rect fill="#F1F1F1" height="43.9688" rx="2.5" ry="2.5" style="stroke:#181818;stroke-width:0.5;" width="100.1641" x="54" y="473.2969"/><rect fill="#F1F1F1" height="10" style="stroke:#181818;stroke-width:0.5;" width="15" x="134.1641" y="478.2969"/><rect fill="#F1F1F1" height="2" style="stroke:#181818;stroke-width:0.5;" width="4" x="132.1641" y="480.2969"/><rect fill="#F1F1F1" height="2" style="stroke:#181818;stroke-width:0.5;" width="4" x="132.1641" y="484.2969"/><text fill="#000000" font-family="sans-serif" font-size="12" lengthAdjust="spacing" textLength="60.1641" x="69" y="504.4355">Unit Tests</text></g><!--entity integ--><g class="entity" data-entity="integ" data-source-line="88" data-uid="ent0009" id="entity_integ"><rect fill="#F1F1F1" height="43.9688" rx="2.5" ry="2.5" style="stroke:#181818;stroke-width:0.5;" width="141.8594" x="33" y="578.2969"/><rect fill="#F1F1F1" height="10" style="stroke:#181818;stroke-width:0.5;" width="15" x="154.8594" y="583.2969"/><rect fill="#F1F1F1" height="2" style="stroke:#181818;stroke-width:0.5;" width="4" x="152.8594" y="585.2969"/><rect fill="#F1F1F1" height="2" style="stroke:#181818;stroke-width:0.5;" width="4" x="152.8594" y="589.2969"/><text fill="#000000" font-family="sans-serif" font-size="12" lengthAdjust="spacing" textLength="101.8594" x="48" y="609.4355">Integration Tests</text></g><!--entity sec--><g class="entity" data-entity="sec" data-source-line="89" data-uid="ent0010" id="entity_sec"><rect fill="#F1F1F1" height="57.9375" rx="2.5" ry="2.5" style="stroke:#181818;stroke-width:0.5;" width="119.9863" x="44" y="683.2969"/><rect fill="#F1F1F1" height="10" style="stroke:#181818;stroke-width:0.5;" width="15" x="143.9863" y="688.2969"/><rect fill="#F1F1F1" height="2" style="stroke:#181818;stroke-width:0.5;" width="4" x="141.9863" y="690.2969"/><rect fill="#F1F1F1" height="2" style="stroke:#181818;stroke-width:0.5;" width="4" x="141.9863" y="694.2969"/><text fill="#000000" font-family="sans-serif" font-size="12" lengthAdjust="spacing" textLength="74.8418" x="59" y="714.4355">SAST / DAST</text><text fill="#000000" font-family="sans-serif" font-size="12" lengthAdjust="spacing" textLength="79.9863" x="59" y="728.4043">(Snyk + ZAP)</text></g><!--entity docker--><g class="entity" data-entity="docker" data-source-line="90" data-uid="ent0011" id="entity_docker"><rect fill="#F1F1F1" height="57.9375" rx="2.5" ry="2.5" style="stroke:#181818;stroke-width:0.5;" width="132.5781" x="37.5" y="802.2969"/><rect fill="#F1F1F1" height="10" style="stroke:#181818;stroke-width:0.5;" width="15" x="150.0781" y="807.2969"/><rect fill="#F1F1F1" height="2" style="stroke:#181818;stroke-width:0.5;" width="4" x="148.0781" y="809.2969"/><rect fill="#F1F1F1" height="2" style="stroke:#181818;stroke-width:0.5;" width="4" x="148.0781" y="813.2969"/><text fill="#000000" font-family="sans-serif" font-size="12" lengthAdjust="spacing" textLength="92.5781" x="52.5" y="833.4355">Container Build</text><text fill="#000000" font-family="sans-serif" font-size="12" lengthAdjust="spacing" textLength="51.8086" x="52.5" y="847.4043">(Docker)</text></g><!--entity ecr--><g class="entity" data-entity="ecr" data-source-line="94" data-uid="ent0013" id="entity_ecr"><rect fill="#F1F1F1" height="43.9688" rx="2.5" ry="2.5" style="stroke:#181818;stroke-width:0.5;" width="117.7773" x="32" y="953.2969"/><rect fill="#F1F1F1" height="10" style="stroke:#181818;stroke-width:0.5;" width="15" x="129.7773" y="958.2969"/><rect fill="#F1F1F1" height="2" style="stroke:#181818;stroke-width:0.5;" width="4" x="127.7773" y="960.2969"/><rect fill="#F1F1F1" height="2" style="stroke:#181818;stroke-width:0.5;" width="4" x="127.7773" y="964.2969"/><text fill="#000000" font-family="sans-serif" font-size="12" lengthAdjust="spacing" textLength="77.7773" x="47" y="984.4355">ECR Registry</text></g><!--entity helm--><g class="entity" data-entity="helm" data-source-line="95" data-uid="ent0014" id="entity_helm"><rect fill="#F1F1F1" height="57.9375" rx="2.5" ry="2.5" style="stroke:#181818;stroke-width:0.5;" width="114.4727" x="185" y="946.2969"/><rect fill="#F1F1F1" height="10" style="stroke:#181818;stroke-width:0.5;" width="15" x="279.4727" y="951.2969"/><rect fill="#F1F1F1" height="2" style="stroke:#181818;stroke-width:0.5;" width="4" x="277.4727" y="953.2969"/><rect fill="#F1F1F1" height="2" style="stroke:#181818;stroke-width:0.5;" width="4" x="277.4727" y="957.2969"/><text fill="#000000" font-family="sans-serif" font-size="12" lengthAdjust="spacing" textLength="74.4727" x="200" y="977.4355">Helm Charts</text><text fill="#000000" font-family="sans-serif" font-size="12" lengthAdjust="spacing" textLength="24.6152" x="200" y="991.4043">(S3)</text></g><!--entity stg_eks--><g class="entity" data-entity="stg_eks" data-source-line="100" data-uid="ent0017" id="entity_stg_eks"><rect fill="#F1F1F1" height="43.9688" rx="2.5" ry="2.5" style="stroke:#181818;stroke-width:0.5;" width="112.7324" x="185.5" y="1149.2969"/><rect fill="#F1F1F1" height="10" style="stroke:#181818;stroke-width:0.5;" width="15" x="278.2324" y="1154.2969"/><rect fill="#F1F1F1" height="2" style="stroke:#181818;stroke-width:0.5;" width="4" x="276.2324" y="1156.2969"/><rect fill="#F1F1F1" height="2" style="stroke:#181818;stroke-width:0.5;" width="4" x="276.2324" y="1160.2969"/><text fill="#000000" font-family="sans-serif" font-size="12" lengthAdjust="spacing" textLength="72.7324" x="200.5" y="1180.4355">EKS Staging</text></g><!--entity stg_db--><g class="entity" data-entity="stg_db" data-source-line="101" data-uid="ent0018" id="entity_stg_db"><path d="M187,1315.7969 C187,1305.7969 242.0205,1305.7969 242.0205,1305.7969 C242.0205,1305.7969 297.041,1305.7969 297.041,1315.7969 L297.041,1338.7656 C297.041,1348.7656 242.0205,1348.7656 242.0205,1348.7656 C242.0205,1348.7656 187,1348.7656 187,1338.7656 L187,1315.7969" fill="#F1F1F1" style="stroke:#181818;stroke-width:0.5;"/><path d="M187,1315.7969 C187,1325.7969 242.0205,1325.7969 242.0205,1325.7969 C242.0205,1325.7969 297.041,1325.7969 297.041,1315.7969" fill="none" style="stroke:#181818;stroke-width:0.5;"/><text fill="#000000" font-family="sans-serif" font-size="12" lengthAdjust="spacing" textLength="90.041" x="197" y="1340.9355">Aurora Staging</text></g><!--entity prod_eks--><g class="entity" data-entity="prod_eks" data-source-line="104" data-uid="ent0020" id="entity_prod_eks"><rect fill="#F1F1F1" height="43.9688" rx="2.5" ry="2.5" style="stroke:#181818;stroke-width:0.5;" width="131.2012" x="355.5" y="1305.2969"/><rect fill="#F1F1F1" height="10" style="stroke:#181818;stroke-width:0.5;" width="15" x="466.7012" y="1310.2969"/><rect fill="#F1F1F1" height="2" style="stroke:#181818;stroke-width:0.5;" width="4" x="464.7012" y="1312.2969"/><rect fill="#F1F1F1" height="2" style="stroke:#181818;stroke-width:0.5;" width="4" x="464.7012" y="1316.2969"/><text fill="#000000" font-family="sans-serif" font-size="12" lengthAdjust="spacing" textLength="91.2012" x="370.5" y="1336.4355">EKS Production</text></g><!--entity prod_db--><g class="entity" data-entity="prod_db" data-source-line="105" data-uid="ent0021" id="entity_prod_db"><path d="M356.5,1459.2969 C356.5,1449.2969 420.7549,1449.2969 420.7549,1449.2969 C420.7549,1449.2969 485.0098,1449.2969 485.0098,1459.2969 L485.0098,1482.2656 C485.0098,1492.2656 420.7549,1492.2656 420.7549,1492.2656 C420.7549,1492.2656 356.5,1492.2656 356.5,1482.2656 L356.5,1459.2969" fill="#F1F1F1" style="stroke:#181818;stroke-width:0.5;"/><path d="M356.5,1459.2969 C356.5,1469.2969 420.7549,1469.2969 420.7549,1469.2969 C420.7549,1469.2969 485.0098,1469.2969 485.0098,1459.2969" fill="none" style="stroke:#181818;stroke-width:0.5;"/><text fill="#000000" font-family="sans-serif" font-size="12" lengthAdjust="spacing" textLength="108.5098" x="366.5" y="1484.4355">Aurora Production</text></g><!--entity dd--><g class="entity" data-entity="dd" data-source-line="110" data-uid="ent0023" id="entity_dd"><rect fill="#F1F1F1" height="43.9688" rx="2.5" ry="2.5" style="stroke:#181818;stroke-width:0.5;" width="91.2285" x="570.5" y="1448.7969"/><rect fill="#F1F1F1" height="10" style="stroke:#181818;stroke-width:0.5;" width="15" x="641.7285" y="1453.7969"/><rect fill="#F1F1F1" height="2" style="stroke:#181818;stroke-width:0.5;" width="4" x="639.7285" y="1455.7969"/><rect fill="#F1F1F1" height="2" style="stroke:#181818;stroke-width:0.5;" width="4" x="639.7285" y="1459.7969"/><text fill="#000000" font-family="sans-serif" font-size="12" lengthAdjust="spacing" textLength="51.2285" x="585.5" y="1479.9355">Datadog</text></g><!--entity pd--><g class="entity" data-entity="pd" data-source-line="111" data-uid="ent0024" id="entity_pd"><rect fill="#F1F1F1" height="43.9688" rx="2.5" ry="2.5" style="stroke:#181818;stroke-width:0.5;" width="103.1758" x="567.5" y="1593.2969"/><rect fill="#F1F1F1" height="10" style="stroke:#181818;stroke-width:0.5;" width="15" x="650.6758" y="1598.2969"/><rect fill="#F1F1F1" height="2" style="stroke:#181818;stroke-width:0.5;" width="4" x="648.6758" y="1600.2969"/><rect fill="#F1F1F1" height="2" style="stroke:#181818;stroke-width:0.5;" width="4" x="648.6758" y="1604.2969"/><text fill="#000000" font-family="sans-serif" font-size="12" lengthAdjust="spacing" textLength="63.1758" x="582.5" y="1624.4355">PagerDuty</text></g><!--link local to repo--><g class="link" data-entity-1="local" data-entity-2="repo" data-source-line="114" data-uid="lnk25" id="link_local_repo"><path d="M104,124.5569 C104,151.3269 104,191.0569 104,217.8969" fill="none" id="local-to-repo" style="stroke:#181818;stroke-width:1;"/><polygon fill="#181818" points="104,223.8969,108,214.8969,104,218.8969,100,214.8969,104,223.8969" style="stroke:#181818;stroke-width:1;"/><text fill="#000000" font-family="sans-serif" font-size="12" lengthAdjust="spacing" textLength="48.5508" x="105" y="168.4355">git push</text></g><!--link repo to runner--><g class="link" data-entity-1="repo" data-entity-2="runner" data-source-line="115" data-uid="lnk26" id="link_repo_runner"><path d="M104,268.4869 C104,289.6869 104,316.1169 104,337.2669" fill="none" id="repo-to-runner" style="stroke:#181818;stroke-width:1;"/><polygon fill="#181818" points="104,343.2669,108,334.2669,104,338.2669,100,334.2669,104,343.2669" style="stroke:#181818;stroke-width:1;"/><text fill="#000000" font-family="sans-serif" font-size="12" lengthAdjust="spacing" textLength="40.5234" x="105" y="310.4355">trigger</text></g><!--link runner to unit--><g class="link" data-entity-1="runner" data-entity-2="unit" data-source-line="116" data-uid="lnk27" id="link_runner_unit"><path d="M104,387.4369 C104,411.1469 104,443.3969 104,467.1269" fill="none" id="runner-to-unit" style="stroke:#181818;stroke-width:1;"/><polygon fill="#181818" points="104,473.1269,108,464.1269,104,468.1269,100,464.1269,104,473.1269" style="stroke:#181818;stroke-width:1;"/></g><!--link unit to integ--><g class="link" data-entity-1="unit" data-entity-2="integ" data-source-line="117" data-uid="lnk28" id="link_unit_integ"><path d="M104,517.6369 C104,535.3169 104,554.3169 104,571.9869" fill="none" id="unit-to-integ" style="stroke:#181818;stroke-width:1;"/><polygon fill="#181818" points="104,577.9869,108,568.9869,104,572.9869,100,568.9869,104,577.9869" style="stroke:#181818;stroke-width:1;"/></g><!--link integ to sec--><g class="link" data-entity-1="integ" data-entity-2="sec" data-source-line="118" data-uid="lnk29" id="link_integ_sec"><path d="M104,622.5069 C104,639.7369 104,658.1969 104,677.0769" fill="none" id="integ-to-sec" style="stroke:#181818;stroke-width:1;"/><polygon fill="#181818" points="104,683.0769,108,674.0769,104,678.0769,100,674.0769,104,683.0769" style="stroke:#181818;stroke-width:1;"/></g><!--link sec to docker--><g class="link" data-entity-1="sec" data-entity-2="docker" data-source-line="119" data-uid="lnk30" id="link_sec_docker"><path d="M104,741.3169 C104,759.7069 104,777.6669 104,796.0969" fill="none" id="sec-to-docker" style="stroke:#181818;stroke-width:1;"/><polygon fill="#181818" points="104,802.0969,108,793.0969,104,797.0969,100,793.0969,104,802.0969" style="stroke:#181818;stroke-width:1;"/></g><!--link docker to ecr--><g class="link" data-entity-1="docker" data-entity-2="ecr" data-source-line="120" data-uid="lnk31" id="link_docker_ecr"><path d="M101.43,860.3469 C98.93,887.6669 95.7378,922.6019 93.4778,947.2519" fill="none" id="docker-to-ecr" style="stroke:#181818;stroke-width:1;"/><polygon fill="#181818" points="92.93,953.2269,97.735,944.6297,93.3865,948.2478,89.7684,943.8993,92.93,953.2269" style="stroke:#181818;stroke-width:1;"/></g><!--link docker to helm--><g class="link" data-entity-1="docker" data-entity-2="helm" data-source-line="121" data-uid="lnk32" id="link_docker_helm"><path d="M131.26,860.3469 C155.3,885.0869 185.9784,916.6541 210.1384,941.5141" fill="none" id="docker-to-helm" style="stroke:#181818;stroke-width:1;"/><polygon fill="#181818" points="214.32,945.8169,210.9161,936.5749,210.8353,942.2312,205.179,942.1504,214.32,945.8169" style="stroke:#181818;stroke-width:1;"/></g><!--link helm to stg_eks--><g class="link" data-entity-1="helm" data-entity-2="stg_eks" data-source-line="123" data-uid="lnk33" id="link_helm_stg_eks"><path d="M242,1004.5069 C242,1043.8069 242,1108.1569 242,1143.2269" fill="none" id="helm-to-stg_eks" style="stroke:#181818;stroke-width:1;"/><polygon fill="#181818" points="242,1149.2269,246,1140.2269,242,1144.2269,238,1140.2269,242,1149.2269" style="stroke:#181818;stroke-width:1;"/><text fill="#000000" font-family="sans-serif" font-size="12" lengthAdjust="spacing" textLength="88.6934" x="243" y="1048.4355">deploy staging</text></g><!--link stg_eks to stg_db--><g class="link" data-entity-1="stg_eks" data-entity-2="stg_db" data-source-line="124" data-uid="lnk34" id="link_stg_eks_stg_db"><path d="M242,1193.3869 C242,1222.8769 242,1270.1069 242,1299.4569" fill="none" id="stg_eks-to-stg_db" style="stroke:#181818;stroke-width:1;"/><polygon fill="#181818" points="242,1305.4569,246,1296.4569,242,1300.4569,238,1296.4569,242,1305.4569" style="stroke:#181818;stroke-width:1;"/></g><!--link stg_eks to prod_eks--><g class="link" data-entity-1="stg_eks" data-entity-2="prod_eks" data-source-line="125" data-uid="lnk35" id="link_stg_eks_prod_eks"><path d="M266.51,1193.3869 C300.7,1222.7969 357.7719,1271.8935 391.9519,1301.3035" fill="none" id="stg_eks-to-prod_eks" style="stroke:#181818;stroke-width:1;"/><polygon fill="#181818" points="396.5,1305.2169,392.2868,1296.3147,392.7099,1301.9557,387.0689,1302.3789,396.5,1305.2169" style="stroke:#181818;stroke-width:1;"/><text fill="#000000" font-family="sans-serif" font-size="12" lengthAdjust="spacing" textLength="51.0117" x="349.083" y="1235.4355">promote</text><text fill="#000000" font-family="sans-serif" font-size="12" lengthAdjust="spacing" textLength="85.1777" x="332" y="1249.4043">(manual gate)</text></g><!--link prod_eks to prod_db--><g class="link" data-entity-1="prod_eks" data-entity-2="prod_db" data-source-line="126" data-uid="lnk36" id="link_prod_eks_prod_db"><path d="M421,1349.4769 C421,1376.3069 421,1416.2469 421,1442.9269" fill="none" id="prod_eks-to-prod_db" style="stroke:#181818;stroke-width:1;"/><polygon fill="#181818" points="421,1448.9269,425,1439.9269,421,1443.9269,417,1439.9269,421,1448.9269" style="stroke:#181818;stroke-width:1;"/></g><!--link prod_eks to dd--><g class="link" data-entity-1="prod_eks" data-entity-2="dd" data-source-line="127" data-uid="lnk37" id="link_prod_eks_dd"><path d="M450.19,1349.4769 C487.06,1376.2369 545.2533,1418.4637 582.0733,1445.1737" fill="none" id="prod_eks-to-dd" style="stroke:#181818;stroke-width:1;"/><polygon fill="#181818" points="586.93,1448.6969,581.9937,1440.1744,582.8828,1445.7609,577.2962,1446.65,586.93,1448.6969" style="stroke:#181818;stroke-width:1;"/><text fill="#000000" font-family="sans-serif" font-size="12" lengthAdjust="spacing" textLength="87.123" x="513" y="1392.9355">metrics + logs</text></g><!--link dd to pd--><g class="link" data-entity-1="dd" data-entity-2="pd" data-source-line="128" data-uid="lnk38" id="link_dd_pd"><path d="M616.44,1492.8269 C617.01,1519.7669 617.8633,1560.1982 618.4333,1587.1882" fill="none" id="dd-to-pd" style="stroke:#181818;stroke-width:1;"/><polygon fill="#181818" points="618.56,1593.1869,622.3691,1584.1044,618.4544,1588.188,614.3709,1584.2733,618.56,1593.1869" style="stroke:#181818;stroke-width:1;"/><text fill="#000000" font-family="sans-serif" font-size="12" lengthAdjust="spacing" textLength="33.9609" x="618" y="1560.4355">alerts</text></g><!--SRC=[fLTjRzis4FwkNt7HYYN16ZGlRbuAT83Ud0PBRKDoi6KO4D0I8nEHHO6at7f3WVs8_SBzafqeoP9bgIjG1PR5k-Vk7XuVaSuXlF-EopW48iBbISH8BCXAWbhI5OL___u77ccIy4_m8_owP8f2HXAg5CM0Xy2wzTx10Kl398yeXZ09pooXO7lZgUyLES0PGS8MWeWDL3YC_2wc67zoSW8pAYHFPV5i7BoQUNumdJpPjq_Ez7xgmtimVnYxtkMrPJRUyNGoR_alzDNosrFVzVmMmhsvkZgzDEkImKOgkgfB1e_1tFlOAUcDBvmhi_4EbgoZ_wUamrD5M8fphQewcD2wcs3CGE46C5YxbUDRouDhxpDmxGu9nxqOkMONymqyYanTAlRexSNfJOlAAkCfJLN3u-DiEl4mTxSJDqwLlWPyXS4sHxUyOrrRfwDjUU-peY8bIKTttczppvzOzq-z0doBVoEp1zOXTAclFk0UBMHrVkFjqzhLvZPDhqZtQVMhjOVMa6o7QEtfTvjfICZxv0OLtSFlAz8UfjWHLYjPlyBwA0v8hPVYeEOw57sQ4CLGR4kMrUHyx_vfZhbQKLVNLsUNZbavxt7sBUVD-UZqj4bfypoDY62qpcTF7oQkvJ_sx04jv-xynsFRivjTyOMb6T67nX79ieJH2CWpDhVO-wiz_rXNEuJvaagA9ms5Y3wZB10fWK0cU4YZ7CsImvhHJn92ak8dIVH1LEMhpfFw73bembvPM7ZJC3awDW1aFOG52LzYKKpTuGaNK4m1hnqC4Y9veiOes0d1eyyCQCmfFDoPhy4IZ2IlGP9KdaWgsFDGPC3-f71slkDEQ4pJ2Fv28u3TmmIRMVguYAYexEKYQ7kHkBAMEzVMMfOxm_4Num2BR1jY63qTCHHJU3XF-9hCo4QVxSxT6yU56SjeWgjX62d7SznqwPecFAF2B9OdecjDFgpV4p3lEIuD84m3ac9aVAcZRvdwa2-q9rvs8tsQSSaK5niD43ZS1LYXLZpuUPfM18H-R0hOEKiY_3qofr9fm48REfKUKgOqH6fCZiDTm5sgAFxMASgrSAomxW83AvZ36t3nwu_qA4WtB_0J_6xDZdM0fE4kl3apDL4CSNduGaK9Z_HpCnbBAFPCGWK1DeLg216gEndFyN4tY9bKLUDeA7OH7sYo0cU9iR8WUL5MMwArgUMbQoPukYhskZ9BkfQwLEaF58bP6fVJKd4bsJQDNmBeW9xeYzImY2Yo8BAOKYwu87l0QA5rMXUR2HxbUh4r0gKRzHVi0GuNxGDNXRTjc2xm7LwJ1KkOAhl95xBRSHSpHxna7qMxlXc9gN3pAZYBYjJw9S1TxcUjQNW7CSelo-NIq6Fjq3f6bn8inWn6PIXyMfx5JOzA4Ugx7XSQmuz-hWHKVcbBeONMKA-vKTpBs7ADi6n4iuHlqA3NnQWTDGZRr3RLVSP0V5nnHL5NAvBcECsOA7fiR15REAROCKOHHgyepZUK-CuaF9O6sZI-SE6_4gXNupy0]--></g></svg>