<svg xmlns="http://www.w3.org/2000/svg" xmlns:xlink="http://www.w3.org/1999/xlink" contentStyleType="text/css" data-diagram-type="DESCRIPTION" height="898px" preserveAspectRatio="none" style="width:1491px;height:898px;background:#FFFFFF;" version="1.1" viewBox="0 0 1491 898" width="1491px" zoomAndPan="magnify"><title>NovaPay &#8212; Production Infrastructure</title><defs/><g><g class="title" data-source-line="75"><text fill="#000000" font-family="sans-serif" font-size="14" font-weight="bold" lengthAdjust="spacing" textLength="294.3828" x="591.3538" y="22.9951">NovaPay &#8212; Production Infrastructure</text></g><!--cluster primary--><g class="cluster" data-entity="primary" data-source-line="77" data-uid="ent0002" id="cluster_primary"><polygon fill="none" points="16,53.2969,26,43.2969,1149,43.2969,1149,727.7969,1139,737.7969,16,737.7969,16,53.2969" style="stroke:#181818;stroke-width:1;"/><line style="stroke:#181818;stroke-width:1;" x1="1139" x2="1149" y1="53.2969" y2="43.2969"/><line style="stroke:#181818;stroke-width:1;" x1="16" x2="1139" y1="53.2969" y2="53.2969"/><line style="stroke:#181818;stroke-width:1;" x1="1139" x2="1139" y1="53.2969" y2="737.7969"/><text fill="#000000" font-family="sans-serif" font-size="12" font-weight="bold" lengthAdjust="spacing" textLength="170.7539" x="493.123" y="67.4355">AWS eu-west-1 (Primary)</text></g><!--cluster vpc--><g class="cluster" data-entity="vpc" data-source-line="78" data-uid="ent0003" id="cluster_vpc"><polygon fill="none" points="40,98.2969,50,88.2969,1125,88.2969,1125,703.7969,1115,713.7969,40,713.7969,40,98.2969" style="stroke:#181818;stroke-width:1;"/><line style="stroke:#181818;stroke-width:1;" x1="1115" x2="1125" y1="98.2969" y2="88.2969"/><line style="stroke:#181818;stroke-width:1;" x1="40" x2="1115" y1="98.2969" y2="98.2969"/><line style="stroke:#181818;stroke-width:1;" x1="1115" x2="1115" y1="98.2969" y2="713.7969"/><text fill="#000000" font-family="sans-serif" font-size="12" font-weight="bold" lengthAdjust="spacing" textLength="123.75" x="516.625" y="112.4355">VPC &#8212; 10.0.0.0/16</text></g><!--cluster pub--><g class="cluster" data-entity="pub" data-source-line="79" data-uid="ent0004" id="cluster_pub"><polygon fill="none" points="89,143.2969,99,133.2969,258,133.2969,258,325.2969,248,335.2969,89,335.2969,89,143.2969" style="stroke:#181818;stroke-width:1;"/><line style="stroke:#181818;stroke-width:1;" x1="248" x2="258" y1="143.2969" y2="133.2969"/><line style="stroke:#181818;stroke-width:1;" x1="89" x2="248" y1="143.2969" y2="143.2969"/><line style="stroke:#181818;stroke-width:1;" x1="248" x2="248" y1="143.2969" y2="335.2969"/><text fill="#000000" font-family="sans-serif" font-size="12" font-weight="bold" lengthAdjust="spacing" textLength="93.6387" x="122.6807" y="157.4355">Public Subnet</text></g><!--cluster app--><g class="cluster" data-entity="app" data-source-line="83" data-uid="ent0007" id="cluster_app"><polygon fill="none" points="64,378.2969,74,368.2969,628,368.2969,628,679.7969,618,689.7969,64,689.7969,64,378.2969" style="stroke:#181818;stroke-width:1;"/><line style="stroke:#181818;stroke-width:1;" x1="618" x2="628" y1="378.2969" y2="368.2969"/><line style="stroke:#181818;stroke-width:1;" x1="64" x2="618" y1="378.2969" y2="378.2969"/><line style="stroke:#181818;stroke-width:1;" x1="618" x2="618" y1="378.2969" y2="689.7969"/><text fill="#000000" font-family="sans-serif" font-size="12" font-weight="bold" lengthAdjust="spacing" textLength="178.3477" x="252.8262" y="392.4355">Private Subnet &#8212; App Tier</text></g><!--cluster eks--><g class="cluster" data-entity="eks" data-source-line="84" data-uid="ent0008" id="cluster_eks"><polygon fill="none" points="88,423.2969,98,413.2969,604,413.2969,604,655.7969,594,665.7969,88,665.7969,88,423.2969" style="stroke:#181818;stroke-width:1;"/><line style="stroke:#181818;stroke-width:1;" x1="594" x2="604" y1="423.2969" y2="413.2969"/><line style="stroke:#181818;stroke-width:1;" x1="88" x2="594" y1="423.2969" y2="423.2969"/><line style="stroke:#181818;stroke-width:1;" x1="594" x2="594" y1="423.2969" y2="665.7969"/><text fill="#000000" font-family="sans-serif" font-size="12" font-weight="bold" lengthAdjust="spacing" textLength="78.7148" x="302.6426" y="437.4355">EKS Cluster</text></g><!--cluster data--><g class="cluster" data-entity="data" data-source-line="92" data-uid="ent0014" id="cluster_data"><polygon fill="none" points="652,565.2969,662,555.2969,1101,555.2969,1101,655.2969,1091,665.2969,652,665.2969,652,565.2969" style="stroke:#181818;stroke-width:1;"/><line style="stroke:#181818;stroke-width:1;" x1="1091" x2="1101" y1="565.2969" y2="555.2969"/><line style="stroke:#181818;stroke-width:1;" x1="652" x2="1091" y1="565.2969" y2="565.2969"/><line style="stroke:#181818;stroke-width:1;" x1="1091" x2="1091" y1="565.2969" y2="665.2969"/><text fill="#000000" font-family="sans-serif" font-size="12" font-weight="bold" lengthAdjust="spacing" textLength="183.7734" x="780.6133" y="579.4355">Private Subnet &#8212; Data Tier</text></g><!--cluster dr--><g class="cluster" data-entity="dr" data-source-line="100" data-uid="ent0018" id="cluster_dr"><polygon fill="none" points="657,794.7969,667,784.7969,985,784.7969,985,871.7969,975,881.7969,657,881.7969,657,794.7969" style="stroke:#181818;stroke-width:1;"/><line style="stroke:#181818;stroke-width:1;" x1="975" x2="985" y1="794.7969" y2="784.7969"/><line style="stroke:#181818;stroke-width:1;" x1="657" x2="975" y1="794.7969" y2="794.7969"/><line style="stroke:#181818;stroke-width:1;" x1="975" x2="975" y1="794.7969" y2="881.7969"/><text fill="#000000" font-family="sans-serif" font-size="12" font-weight="bold" lengthAdjust="spacing" textLength="152.3438" x="740.8281" y="808.9355">AWS eu-central-1 (DR)</text></g><!--cluster ext--><g class="cluster" data-entity="ext" data-source-line="105" data-uid="ent0021" id="cluster_ext"><path d="M1184.2294,578.3167 C1187.7722,568.3947 1195.9618,564.2121 1204.1402,573.5158 C1210.288,563.0372 1219.1042,564.9588 1225.004,573.7839 C1229.4098,564.9957 1238.7843,562.1538 1244.636,572.2834 C1249.3516,562.3507 1260.0061,560.3199 1266.3444,570.5351 C1271.8291,559.9257 1279.5025,559.746 1286.9986,568.3759 C1291.9248,557.4372 1300.5124,558.0753 1306.7139,567.1175 C1311.4869,556.34 1320.5855,553.5696 1328.0967,564.4089 C1335.1643,557.1724 1343.8667,559.9823 1347.0811,568.929 C1353.2085,561.5024 1360.8689,559.5206 1366.2128,569.7767 C1371.7254,559.4723 1382.7939,558.7986 1388.7059,569.3459 C1396.2042,559.591 1403.1281,560.3345 1408.9518,571.0058 C1417.2631,562.3254 1423.5777,562.7661 1428.5272,574.2667 C1435.2875,563.8857 1442.6888,563.8612 1450.0733,573.5981 C1457.3333,563.8004 1465.826,563.3852 1471.2849,575.3533 C1482.7398,580.6182 1482.6263,588.1638 1473.3328,595.5342 C1483.1448,600.8767 1482.6875,608.2875 1473.9123,614.2069 C1484.0904,619.9403 1481.8911,629.4764 1472.687,634.0105 C1480.0802,639.3144 1480.9695,646.515 1472.6633,651.7981 C1464.8852,664.1946 1456.7536,661.9964 1449.3943,651.3747 C1443.2094,662.2131 1434.8229,662.257 1428.669,651.3452 C1423.7034,660.6054 1417.8925,662.6 1409.721,654.9339 C1401.9705,663.7669 1395.4569,661.877 1389.8678,652.5686 C1384.7663,663.2635 1374.0243,664.5801 1366.3567,655.6415 C1358.7219,664.6576 1353.0608,664.2233 1347.6984,653.4942 C1342.1798,665.7068 1333.7808,665.3715 1325.8278,655.956 C1318.3286,665.2154 1312.4502,664.0543 1307.3906,653.6666 C1301.8314,665.6001 1293.6966,665.176 1286.2772,655.4825 C1279.3834,665.721 1271.4567,664.0052 1266.3238,653.7667 C1258.7486,664.8078 1250.3591,665.0494 1242.7755,653.7755 C1235.2076,661.428 1228.3658,662.2693 1222.2669,652.0862 C1217.321,662.303 1209.8765,663.9121 1202.8556,654.0969 C1196.8121,665.5792 1186.7752,662.5167 1181.491,653.3128 C1171.4205,649.8405 1170.0423,640.564 1178.4062,634.1276 C1166.6964,629.6137 1166.1191,623.5261 1174.2848,614.7786 C1167.1136,607.0786 1170.6631,597.3071 1180.3147,594.6457 C1174.7206,588.3781 1176.2693,581.3349 1184.2294,578.3167" fill="none" style="stroke:#181818;stroke-width:1;"/><text fill="#000000" font-family="sans-serif" font-size="12" font-weight="bold" lengthAdjust="spacing" textLength="56.4844" x="1296.7578" y="590.9355">External</text></g><!--entity alb--><g class="entity" data-entity="alb" data-source-line="80" data-uid="ent0005" id="entity_alb"><rect fill="#F1F1F1" height="43.9688" rx="2.5" ry="2.5" style="stroke:#181818;stroke-width:0.5;" width="63.127" x="141.5" y="275.2969"/><rect fill="#F1F1F1" height="10" style="stroke:#181818;stroke-width:0.5;" width="15" x="184.627" y="280.2969"/><rect fill="#F1F1F1" height="2" style="stroke:#181818;stroke-width:0.5;" width="4" x="182.627" y="282.2969"/><rect fill="#F1F1F1" height="2" style="stroke:#181818;stroke-width:0.5;" width="4" x="182.627" y="286.2969"/><text fill="#000000" font-family="sans-serif" font-size="12" lengthAdjust="spacing" textLength="23.127" x="156.5" y="306.4355">ALB</text></g><!--entity cf--><g class="entity" data-entity="cf" data-source-line="81" data-uid="ent0006" id="entity_cf"><rect fill="#F1F1F1" height="43.9688" rx="2.5" ry="2.5" style="stroke:#181818;stroke-width:0.5;" width="105.7656" x="120" y="170.2969"/><rect fill="#F1F1F1" height="10" style="stroke:#181818;stroke-width:0.5;" width="15" x="205.7656" y="175.2969"/><rect fill="#F1F1F1" height="2" style="stroke:#181818;stroke-width:0.5;" width="4" x="203.7656" y="177.2969"/><rect fill="#F1F1F1" height="2" style="stroke:#181818;stroke-width:0.5;" width="4" x="203.7656" y="181.2969"/><text fill="#000000" font-family="sans-serif" font-size="12" lengthAdjust="spacing" textLength="65.7656" x="135" y="201.4355">CloudFront</text></g><!--entity pe--><g class="entity" data-entity="pe" data-source-line="85" data-uid="ent0009" id="entity_pe"><rect fill="#F1F1F1" height="57.9375" rx="2.5" ry="2.5" style="stroke:#181818;stroke-width:0.5;" width="138.0156" x="104" y="450.2969"/><rect fill="#F1F1F1" height="10" style="stroke:#181818;stroke-width:0.5;" width="15" x="222.0156" y="455.2969"/><rect fill="#F1F1F1" height="2" style="stroke:#181818;stroke-width:0.5;" width="4" x="220.0156" y="457.2969"/><rect fill="#F1F1F1" height="2" style="stroke:#181818;stroke-width:0.5;" width="4" x="220.0156" y="461.2969"/><text fill="#000000" font-family="sans-serif" font-size="12" lengthAdjust="spacing" textLength="98.0156" x="119" y="481.4355">Payment Engine</text><text fill="#000000" font-family="sans-serif" font-size="12" lengthAdjust="spacing" textLength="49.6406" x="119" y="495.4043">(6 pods)</text></g><!--entity fd--><g class="entity" data-entity="fd" data-source-line="86" data-uid="ent0010" id="entity_fd"><rect fill="#F1F1F1" height="57.9375" rx="2.5" ry="2.5" style="stroke:#181818;stroke-width:0.5;" width="130.5156" x="157.5" y="591.7969"/><rect fill="#F1F1F1" height="10" style="stroke:#181818;stroke-width:0.5;" width="15" x="268.0156" y="596.7969"/><rect fill="#F1F1F1" height="2" style="stroke:#181818;stroke-width:0.5;" width="4" x="266.0156" y="598.7969"/><rect fill="#F1F1F1" height="2" style="stroke:#181818;stroke-width:0.5;" width="4" x="266.0156" y="602.7969"/><text fill="#000000" font-family="sans-serif" font-size="12" lengthAdjust="spacing" textLength="90.5156" x="172.5" y="622.9355">Fraud Detector</text><text fill="#000000" font-family="sans-serif" font-size="12" lengthAdjust="spacing" textLength="49.6406" x="172.5" y="636.9043">(4 pods)</text></g><!--entity ls--><g class="entity" data-entity="ls" data-source-line="87" data-uid="ent0011" id="entity_ls"><rect fill="#F1F1F1" height="57.9375" rx="2.5" ry="2.5" style="stroke:#181818;stroke-width:0.5;" width="129.7832" x="416" y="591.7969"/><rect fill="#F1F1F1" height="10" style="stroke:#181818;stroke-width:0.5;" width="15" x="525.7832" y="596.7969"/><rect fill="#F1F1F1" height="2" style="stroke:#181818;stroke-width:0.5;" width="4" x="523.7832" y="598.7969"/><rect fill="#F1F1F1" height="2" style="stroke:#181818;stroke-width:0.5;" width="4" x="523.7832" y="602.7969"/><text fill="#000000" font-family="sans-serif" font-size="12" lengthAdjust="spacing" textLength="89.7832" x="431" y="622.9355">Ledger Service</text><text fill="#000000" font-family="sans-serif" font-size="12" lengthAdjust="spacing" textLength="49.6406" x="431" y="636.9043">(3 pods)</text></g><!--entity ns--><g class="entity" data-entity="ns" data-source-line="88" data-uid="ent0012" id="entity_ns"><rect fill="#F1F1F1" height="57.9375" rx="2.5" ry="2.5" style="stroke:#181818;stroke-width:0.5;" width="133.9844" x="277" y="450.2969"/><rect fill="#F1F1F1" height="10" style="stroke:#181818;stroke-width:0.5;" width="15" x="390.9844" y="455.2969"/><rect fill="#F1F1F1" height="2" style="stroke:#181818;stroke-width:0.5;" width="4" x="388.9844" y="457.2969"/><rect fill="#F1F1F1" height="2" style="stroke:#181818;stroke-width:0.5;" width="4" x="388.9844" y="461.2969"/><text fill="#000000" font-family="sans-serif" font-size="12" lengthAdjust="spacing" textLength="93.9844" x="292" y="481.4355">Notification Svc</text><text fill="#000000" font-family="sans-serif" font-size="12" lengthAdjust="spacing" textLength="49.6406" x="292" y="495.4043">(2 pods)</text></g><!--entity wh--><g class="entity" data-entity="wh" data-source-line="89" data-uid="ent0013" id="entity_wh"><rect fill="#F1F1F1" height="57.9375" rx="2.5" ry="2.5" style="stroke:#181818;stroke-width:0.5;" width="141.0449" x="446.5" y="450.2969"/><rect fill="#F1F1F1" height="10" style="stroke:#181818;stroke-width:0.5;" width="15" x="567.5449" y="455.2969"/><rect fill="#F1F1F1" height="2" style="stroke:#181818;stroke-width:0.5;" width="4" x="565.5449" y="457.2969"/><rect fill="#F1F1F1" height="2" style="stroke:#181818;stroke-width:0.5;" width="4" x="565.5449" y="461.2969"/><text fill="#000000" font-family="sans-serif" font-size="12" lengthAdjust="spacing" textLength="101.0449" x="461.5" y="481.4355">Webhook Engine</text><text fill="#000000" font-family="sans-serif" font-size="12" lengthAdjust="spacing" textLength="49.6406" x="461.5" y="495.4043">(2 pods)</text></g><!--entity aurora--><g class="entity" data-entity="aurora" data-source-line="93" data-uid="ent0015" id="entity_aurora"><path d="M830.5,602.2969 C830.5,592.2969 897.2041,592.2969 897.2041,592.2969 C897.2041,592.2969 963.9082,592.2969 963.9082,602.2969 L963.9082,639.2344 C963.9082,649.2344 897.2041,649.2344 897.2041,649.2344 C897.2041,649.2344 830.5,649.2344 830.5,639.2344 L830.5,602.2969" fill="#F1F1F1" style="stroke:#181818;stroke-width:0.5;"/><path d="M830.5,602.2969 C830.5,612.2969 897.2041,612.2969 897.2041,612.2969 C897.2041,612.2969 963.9082,612.2969 963.9082,602.2969" fill="none" style="stroke:#181818;stroke-width:0.5;"/><text fill="#000000" font-family="sans-serif" font-size="12" lengthAdjust="spacing" textLength="113.4082" x="840.5" y="627.4355">Aurora PostgreSQL</text><text fill="#000000" font-family="sans-serif" font-size="12" lengthAdjust="spacing" textLength="59.4551" x="840.5" y="641.4043">(Multi-AZ)</text></g><!--entity redis--><g class="entity" data-entity="redis" data-source-line="94" data-uid="ent0016" id="entity_redis"><path d="M668.5,602.2969 C668.5,592.2969 731.8086,592.2969 731.8086,592.2969 C731.8086,592.2969 795.1172,592.2969 795.1172,602.2969 L795.1172,639.2344 C795.1172,649.2344 731.8086,649.2344 731.8086,649.2344 C731.8086,649.2344 668.5,649.2344 668.5,639.2344 L668.5,602.2969" fill="#F1F1F1" style="stroke:#181818;stroke-width:0.5;"/><path d="M668.5,602.2969 C668.5,612.2969 731.8086,612.2969 731.8086,612.2969 C731.8086,612.2969 795.1172,612.2969 795.1172,602.2969" fill="none" style="stroke:#181818;stroke-width:0.5;"/><text fill="#000000" font-family="sans-serif" font-size="12" lengthAdjust="spacing" textLength="106.6172" x="678.5" y="627.4355">ElastiCache Redis</text><text fill="#000000" font-family="sans-serif" font-size="12" lengthAdjust="spacing" textLength="89.8008" x="678.5" y="641.4043">(Cluster mode)</text></g><!--entity kafka--><g class="entity" data-entity="kafka" data-source-line="95" data-uid="ent0017" id="entity_kafka"><path d="M1004,601.7969 L1080.2227,601.7969 C1085.2227,601.7969 1085.2227,620.7656 1085.2227,620.7656 C1085.2227,620.7656 1085.2227,639.7344 1080.2227,639.7344 L1004,639.7344 C999,639.7344 999,620.7656 999,620.7656 C999,620.7656 999,601.7969 1004,601.7969" fill="#F1F1F1" style="stroke:#181818;stroke-width:0.5;"/><path d="M1080.2227,601.7969 C1075.2227,601.7969 1075.2227,620.7656 1075.2227,620.7656 C1075.2227,639.7344 1080.2227,639.7344 1080.2227,639.7344" fill="none" style="stroke:#181818;stroke-width:0.5;"/><text fill="#000000" font-family="sans-serif" font-size="12" lengthAdjust="spacing" textLength="63.4043" x="1004" y="617.9355">MSK Kafka</text><text fill="#000000" font-family="sans-serif" font-size="12" lengthAdjust="spacing" textLength="66.2227" x="1004" y="631.9043">(3 brokers)</text></g><!--entity dr_db--><g class="entity" data-entity="dr_db" data-source-line="101" data-uid="ent0019" id="entity_dr_db"><path d="M825.5,832.2969 C825.5,822.2969 896.8271,822.2969 896.8271,822.2969 C896.8271,822.2969 968.1543,822.2969 968.1543,832.2969 L968.1543,855.2656 C968.1543,865.2656 896.8271,865.2656 896.8271,865.2656 C896.8271,865.2656 825.5,865.2656 825.5,855.2656 L825.5,832.2969" fill="#F1F1F1" style="stroke:#181818;stroke-width:0.5;"/><path d="M825.5,832.2969 C825.5,842.2969 896.8271,842.2969 896.8271,842.2969 C896.8271,842.2969 968.1543,842.2969 968.1543,832.2969" fill="none" style="stroke:#181818;stroke-width:0.5;"/><text fill="#000000" font-family="sans-serif" font-size="12" lengthAdjust="spacing" textLength="122.6543" x="835.5" y="857.4355">Aurora Read Replica</text></g><!--entity dr_eks--><g class="entity" data-entity="dr_eks" data-source-line="102" data-uid="ent0020" id="entity_dr_eks"><rect fill="#F1F1F1" height="43.9688" rx="2.5" ry="2.5" style="stroke:#181818;stroke-width:0.5;" width="116.5" x="673.5" y="821.7969"/><rect fill="#F1F1F1" height="10" style="stroke:#181818;stroke-width:0.5;" width="15" x="770" y="826.7969"/><rect fill="#F1F1F1" height="2" style="stroke:#181818;stroke-width:0.5;" width="4" x="768" y="828.7969"/><rect fill="#F1F1F1" height="2" style="stroke:#181818;stroke-width:0.5;" width="4" x="768" y="832.7969"/><text fill="#000000" font-family="sans-serif" font-size="12" lengthAdjust="spacing" textLength="76.5" x="688.5" y="852.9355">EKS Standby</text></g><!--entity cards--><g class="entity" data-entity="cards" data-source-line="106" data-uid="ent0022" id="entity_cards"><rect fill="#F1F1F1" height="43.9688" rx="2.5" ry="2.5" style="stroke:#181818;stroke-width:0.5;" width="144.3027" x="1317" y="598.7969"/><rect fill="#F1F1F1" height="10" style="stroke:#181818;stroke-width:0.5;" width="15" x="1441.3027" y="603.7969"/><rect fill="#F1F1F1" height="2" style="stroke:#181818;stroke-width:0.5;" width="4" x="1439.3027" y="605.7969"/><rect fill="#F1F1F1" height="2" style="stroke:#181818;stroke-width:0.5;" width="4" x="1439.3027" y="609.7969"/><text fill="#000000" font-family="sans-serif" font-size="12" lengthAdjust="spacing" textLength="104.3027" x="1332" y="629.9355">Visa / Mastercard</text></g><!--entity kroki--><g class="entity" data-entity="kroki" data-source-line="107" data-uid="ent0023" id="entity_kroki"><rect fill="#F1F1F1" height="43.9688" rx="2.5" ry="2.5" style="stroke:#181818;stroke-width:0.5;" width="93.2266" x="1188.5" y="598.7969"/><rect fill="#F1F1F1" height="10" style="stroke:#181818;stroke-width:0.5;" width="15" x="1261.7266" y="603.7969"/><rect fill="#F1F1F1" height="2" style="stroke:#181818;stroke-width:0.5;" width="4" x="1259.7266" y="605.7969"/><rect fill="#F1F1F1" height="2" style="stroke:#181818;stroke-width:0.5;" width="4" x="1259.7266" y="609.7969"/><text fill="#000000" font-family="sans-serif" font-size="12" lengthAdjust="spacing" textLength="53.2266" x="1203.5" y="629.9355">Kroki API</text></g><!--link cf to alb--><g class="link" data-entity-1="cf" data-entity-2="alb" data-source-line="110" data-uid="lnk24" id="link_cf_alb"><path d="M173,214.6369 C173,232.3169 173,251.3169 173,268.9869" fill="none" id="cf-to-alb" style="stroke:#181818;stroke-width:1;"/><polygon fill="#181818" points="173,274.9869,177,265.9869,173,269.9869,169,265.9869,173,274.9869" style="stroke:#181818;stroke-width:1;"/></g><!--link alb to pe--><g class="link" data-entity-1="alb" data-entity-2="pe" data-source-line="111" data-uid="lnk25" id="link_alb_pe"><path d="M173,319.2969 C173,351.6669 173,407.7769 173,444.0569" fill="none" id="alb-to-pe" style="stroke:#181818;stroke-width:1;"/><polygon fill="#181818" points="173,450.0569,177,441.0569,173,445.0569,169,441.0569,173,450.0569" style="stroke:#181818;stroke-width:1;"/></g><!--link pe to fd--><g class="link" data-entity-1="pe" data-entity-2="fd" data-source-line="112" data-uid="lnk26" id="link_pe_fd"><path d="M183.12,508.5269 C191.79,532.7269 202.2056,561.7687 210.8756,585.9587" fill="none" id="pe-to-fd" style="stroke:#181818;stroke-width:1;"/><polygon fill="#181818" points="212.9,591.6069,213.6289,581.785,211.213,586.9001,206.098,584.4842,212.9,591.6069" style="stroke:#181818;stroke-width:1;"/></g><!--link pe to ls--><g class="link" data-entity-1="pe" data-entity-2="ls" data-source-line="113" data-uid="lnk27" id="link_pe_ls"><path d="M234.96,508.3569 C288.54,532.6269 360.1243,565.0517 413.6743,589.3017" fill="none" id="pe-to-ls" style="stroke:#181818;stroke-width:1;"/><polygon fill="#181818" points="419.14,591.7769,412.5916,584.4204,414.5853,589.7143,409.2914,591.708,419.14,591.7769" style="stroke:#181818;stroke-width:1;"/></g><!--link pe to kafka--><g class="link" data-entity-1="pe" data-entity-2="kafka" data-source-line="114" data-uid="lnk28" id="link_pe_kafka"><path d="M242.4,504.3669 C248.31,505.8869 254.23,507.2269 260,508.2969 C299.45,515.5869 945.1,529.3969 981,547.2969 C1004.4,558.9669 1019.2397,578.9283 1029.4097,596.3083" fill="none" id="pe-to-kafka" style="stroke:#181818;stroke-width:1;"/><polygon fill="#181818" points="1032.44,601.4869,1031.347,591.6989,1029.9148,597.1714,1024.4422,595.7392,1032.44,601.4869" style="stroke:#181818;stroke-width:1;"/></g><!--link kafka to ns--><g class="link" data-entity-1="kafka" data-entity-2="ns" data-source-line="115" data-uid="lnk29" id="link_kafka_ns"><path d="M1032.4,601.5669 C1022.19,584.2569 1004.31,559.1669 981,547.2969 C926.21,519.3969 489.33,520.1769 429,508.2969 C423.21,507.1569 423.0546,507.2932 417.1346,505.7032" fill="none" id="kafka-to-ns" style="stroke:#181818;stroke-width:1;"/><polygon fill="#181818" points="411.34,504.1469,418.9944,510.3445,416.1689,505.4438,421.0695,502.6183,411.34,504.1469" style="stroke:#181818;stroke-width:1;"/></g><!--link kafka to wh--><g class="link" data-entity-1="kafka" data-entity-2="wh" data-source-line="116" data-uid="lnk30" id="link_kafka_wh"><path d="M1032.01,601.6069 C1021.63,584.5869 1003.72,559.9269 981,547.2969 C914.93,510.5669 706.4368,492.2652 593.7068,484.7652" fill="none" id="kafka-to-wh" style="stroke:#181818;stroke-width:1;"/><polygon fill="#181818" points="587.72,484.3669,596.4346,488.9555,592.709,484.6988,596.9657,480.9732,587.72,484.3669" style="stroke:#181818;stroke-width:1;"/></g><!--link pe to aurora--><g class="link" data-entity-1="pe" data-entity-2="aurora" data-source-line="117" data-uid="lnk31" id="link_pe_aurora"><path d="M242.37,504.1769 C285.19,517.5869 341.6,532.8869 393,539.2969 C416.16,542.1869 791.2,538.9569 813,547.2969 C836.93,556.4569 854.5618,571.2939 869.9218,587.6439" fill="none" id="pe-to-aurora" style="stroke:#181818;stroke-width:1;"/><polygon fill="#181818" points="874.03,592.0169,870.783,582.7186,870.6065,588.3727,864.9524,588.1962,874.03,592.0169" style="stroke:#181818;stroke-width:1;"/></g><!--link fd to redis--><g class="link" data-entity-1="fd" data-entity-2="redis" data-source-line="118" data-uid="lnk32" id="link_fd_redis"><path d="M268.54,591.6469 C306.45,569.2169 362.72,540.0469 416.5,527.7969 C490.17,511.0169 513.98,506.5969 586.5,527.7969 C629.38,540.3269 666.9584,566.0117 694.7884,588.4417" fill="none" id="fd-to-redis" style="stroke:#181818;stroke-width:1;"/><polygon fill="#181818" points="699.46,592.2069,694.9627,583.4448,695.567,589.0693,689.9425,589.6736,699.46,592.2069" style="stroke:#181818;stroke-width:1;"/></g><!--link ls to aurora--><g class="link" data-entity-1="ls" data-entity-2="aurora" data-source-line="119" data-uid="lnk33" id="link_ls_aurora"><path d="M521.68,591.7469 C582.33,552.2269 699.58,490.4969 795.5,527.7969 C828.47,540.6169 853.4151,565.0741 871.8251,587.3241" fill="none" id="ls-to-aurora" style="stroke:#181818;stroke-width:1;"/><polygon fill="#181818" points="875.65,591.9469,872.9944,582.4628,872.4626,588.0946,866.8308,587.5627,875.65,591.9469" style="stroke:#181818;stroke-width:1;"/></g><!--link aurora to dr_db--><g class="link" data-entity-1="aurora" data-entity-2="dr_db" data-source-line="120" data-uid="lnk34" id="link_aurora_dr_db"><path d="M897,649.3369 C897,694.2369 897,776.1869 897,816.1469" fill="none" id="aurora-to-dr_db" style="stroke:#181818;stroke-width:1;stroke-dasharray:7,7;"/><polygon fill="#181818" points="897,822.1469,901,813.1469,897,817.1469,893,813.1469,897,822.1469" style="stroke:#181818;stroke-width:1;"/><text fill="#000000" font-family="sans-serif" font-size="12" lengthAdjust="spacing" textLength="102.2637" x="898" y="765.9355">async replication</text></g><!--link pe to cards--><g class="link" data-entity-1="pe" data-entity-2="cards" data-source-line="121" data-uid="lnk35" id="link_pe_cards"><path d="M242.38,504.4769 C248.29,505.9669 254.22,507.2769 260,508.2969 C487.54,548.3969 1082.58,466.3769 1299,547.2969 C1327.38,557.9069 1349.424,576.909 1366.154,594.249" fill="none" id="pe-to-cards" style="stroke:#181818;stroke-width:1;"/><polygon fill="#181818" points="1370.32,598.5669,1366.9496,589.3127,1366.8483,594.9686,1361.1924,594.8674,1370.32,598.5669" style="stroke:#181818;stroke-width:1;"/></g><!--SRC=[fLRXRk8u4FxFKqnpgsihBRkbPMcxqgwKXB2gIe5BwFPwEgaoYG4Bat1sGfSxLRg7k2Uy9xcndK20i5TfWw2nFTzytqo-s3s6JpzmrOw1Y71QZnYP23ANa4xfdCA_V_y3ZvJpv1b-XeSfIoai2ATfIX5m7zXVl8zmnEAGPn5529CmPfo2utNwlgToWDi4paQ2Y1NaSOZy8QM8hzVhCA129h5KzxMZDmFF3_gz9-VBazllzdtu1DPFdRRNkhAjpMgdtnkMrY_qLLft-dxRyqiHxUlBoxEMLL06AvdIUK4PF0P3xsw7qkjSk9VMPlKWPO7-7qetYLF2OgmrPtKneNtJGym1uat0GUvIZjVIGzlPLz1sTaIuxOjcszgDUOKEbMbNYjFyS75sNP8oNoGnZTEDZhj1l-TXxjrENBjv-YBWEmhMENRfNVlAFckkwRrlAHKnuJk-ytuTUdxFxZvL6l03VffMHTYEe9Q-gWBtPA6gysjlNzQsDzTfAaswBwlQhHMo3jdsaAmz_wup7JBolhY3ZgxGznrh7vQuOwnIicg7LKayOBLAYGSzjoFHfvoa3CqsPOj2dEzrduQOguIwlBfij5mhN-nYzQN5w_FcsTacfPDaSKG4eqK-ft_VQzl-OyKUK5hShh_JSJndiolEMBmW-j0u8Oi5PpG2CiRcghq_t_DFDTin3ATKKZnfA4HqZBR0I0a45Y89QPJXj4nWoUYpX934-ELS7qHvllmyASwHemtiZOt4gusIazCQW2o6C2BXR29KwMx24m6g1BosOb0GoNZQGSFs21vzLa0d2ONx6-ijs88H_XOaYMLTKi76Xv01-vD2utnhcTC9ZIFu2oS1d0ebs4opbeY8YdpUF0GzhnBdisRdMiyQkWQENsf7IB9kIArMqP5Qob8yd7l9aWp8If_j0v54MQWy1ZVnM12P2Xpg1762HxfbFmH0i_epbMcz0IS3mUPub9zQwhajp41NPgA_3boTjd7sJd_UDrewSha8y_fDt20RSHP2a8rYcffSsIYF00YB5nBfkuvU9doql-Zo98iw0lkWOyAn3dafymYs9FW_Yo7Iqh0jC6HKcBGuA5WDmhiDmEKPxgKcWixaEcAB73iuLpTUF44V_nwVj62HH3Bl3As2T0J98cZJb8Pf8X3IB476KHMaIwC96Z-WOib2nN9HWd1P1UabAHkpK6yS42n319sNG74bw86EfaaosrHJXZnFSyZBQnhS9YdPT3XIewA1QZ0YKjag4uaWC4XaEX4q-AMBb7Vu3h6w_PiX9JfY3-Xnz2XpIOXRWKyZ9X6OFo-OeoG35cebn_wHqGo1Ty4jt9BnZEWcZaGompF9HC_KzBgqbzhBZlb3R94WNFc_xHj897HHUmNvb4JuWvjWIFB0fqXPjzHhPR4W9N4qMXKXw3B56Yf3Oq1-CXa3VairLId1LoO9l8SxegeEYOYC_V56RWVUOfKCxC6DALEDDCqOT-FF-ft2hxv7mowelaCVvdTeh_pED4Z_wZ5wQ3D0T-HX-ICRHtfadW6NvINp1zwz-smQ0n_18d8LXnYjUwPCQnNvJ4N_0G00]--></g></svg>