<svg xmlns="http://www.w3.org/2000/svg" xmlns:xlink="http://www.w3.org/1999/xlink" contentStyleType="text/css" data-diagram-type="CLASS" height="631px" preserveAspectRatio="none" style="width:1360px;height:631px;background:#FFFFFF;" version="1.1" viewBox="0 0 1360 631" width="1360px" zoomAndPan="magnify"><title>NovaPay &#8212; Merchant Management Data Model</title><defs/><g><g class="title" data-source-line="75"><text fill="#000000" font-family="sans-serif" font-size="14" font-weight="bold" lengthAdjust="spacing" textLength="369.9404" x="488.5181" y="22.9951">NovaPay &#8212; Merchant Management Data Model</text></g><!--class m--><g class="entity" data-entity="m" data-source-line="77" data-uid="ent0002" id="entity_m"><rect fill="#F1F1F1" height="157.75" rx="2.5" ry="2.5" style="stroke:#181818;stroke-width:0.5;" width="300.0977" x="372" y="44.2969"/><ellipse cx="485.9863" cy="59.2969" fill="#ADD1B2" rx="10" ry="10" style="stroke:#181818;stroke-width:1;"/><path d="M488.4238,63.7969 L482.9707,63.7969 L482.9707,55.0469 L488.4238,55.0469 L488.4238,56.5781 L484.7051,56.5781 L484.7051,58.4531 L488.0645,58.4531 L488.0645,59.9844 L484.7051,59.9844 L484.7051,62.2656 L488.4238,62.2656 L488.4238,63.7969 Z " fill="#000000"/><text fill="#000000" font-family="sans-serif" font-size="12" lengthAdjust="spacing" textLength="64.125" x="504.9863" y="63.4512">merchants</text><line style="stroke:#181818;stroke-width:0.5;" x1="373" x2="671.0977" y1="74.2969" y2="74.2969"/><ellipse cx="383" cy="86.7813" fill="#000000" rx="3" ry="3" style="stroke:#000000;stroke-width:1;"/><text fill="#000000" font-family="sans-serif" font-size="12" lengthAdjust="spacing" textLength="146.2617" x="391" y="89.4355">merchant_id : uuid &#171;PK&#187;</text><line style="stroke:#181818;stroke-width:1;" x1="373" x2="671.0977" y1="96.2656" y2="96.2656"/><ellipse cx="383" cy="108.75" fill="#000000" rx="3" ry="3" style="stroke:#000000;stroke-width:1;"/><text fill="#000000" font-family="sans-serif" font-size="12" lengthAdjust="spacing" textLength="123.8496" x="391" y="111.4043">name : varchar(255)</text><ellipse cx="383" cy="122.7188" fill="#000000" rx="3" ry="3" style="stroke:#000000;stroke-width:1;"/><text fill="#000000" font-family="sans-serif" font-size="12" lengthAdjust="spacing" textLength="159.6738" x="391" y="125.373">legal_entity : varchar(255)</text><ellipse cx="383" cy="136.6875" fill="#000000" rx="3" ry="3" style="stroke:#000000;stroke-width:1;"/><text fill="#000000" font-family="sans-serif" font-size="12" lengthAdjust="spacing" textLength="273.5215" x="391" y="139.3418">status : enum(ACTIVE, SUSPENDED, CLOSED)</text><ellipse cx="383" cy="150.6563" fill="#000000" rx="3" ry="3" style="stroke:#000000;stroke-width:1;"/><text fill="#000000" font-family="sans-serif" font-size="12" lengthAdjust="spacing" textLength="275.0977" x="391" y="153.3105">tier : enum(STARTER, GROWTH, ENTERPRISE)</text><text fill="#000000" font-family="sans-serif" font-size="12" lengthAdjust="spacing" textLength="134.373" x="391" y="167.2793">mcc_code : varchar(4)</text><text fill="#000000" font-family="sans-serif" font-size="12" lengthAdjust="spacing" textLength="136.3066" x="391" y="181.248">website : varchar(500)</text><text fill="#000000" font-family="sans-serif" font-size="12" lengthAdjust="spacing" textLength="151.4355" x="391" y="195.2168">created_at : timestamptz</text></g><!--class mc--><g class="entity" data-entity="mc" data-source-line="89" data-uid="ent0003" id="entity_mc"><rect fill="#F1F1F1" height="129.8125" rx="2.5" ry="2.5" style="stroke:#181818;stroke-width:0.5;" width="297.6016" x="7" y="276.2969"/><ellipse cx="94.2852" cy="291.2969" fill="#ADD1B2" rx="10" ry="10" style="stroke:#181818;stroke-width:1;"/><path d="M96.7227,295.7969 L91.2695,295.7969 L91.2695,287.0469 L96.7227,287.0469 L96.7227,288.5781 L93.0039,288.5781 L93.0039,290.4531 L96.3633,290.4531 L96.3633,291.9844 L93.0039,291.9844 L93.0039,294.2656 L96.7227,294.2656 L96.7227,295.7969 Z " fill="#000000"/><text fill="#000000" font-family="sans-serif" font-size="12" lengthAdjust="spacing" textLength="115.0313" x="113.2852" y="295.4512">merchant_contacts</text><line style="stroke:#181818;stroke-width:0.5;" x1="8" x2="303.6016" y1="306.2969" y2="306.2969"/><ellipse cx="18" cy="318.7813" fill="#000000" rx="3" ry="3" style="stroke:#000000;stroke-width:1;"/><text fill="#000000" font-family="sans-serif" font-size="12" lengthAdjust="spacing" textLength="133.2949" x="26" y="321.4355">contact_id : uuid &#171;PK&#187;</text><line style="stroke:#181818;stroke-width:1;" x1="8" x2="303.6016" y1="328.2656" y2="328.2656"/><ellipse cx="18" cy="340.75" fill="#000000" rx="3" ry="3" style="stroke:#000000;stroke-width:1;"/><text fill="#000000" font-family="sans-serif" font-size="12" lengthAdjust="spacing" textLength="145.9277" x="26" y="343.4043">merchant_id : uuid &#171;FK&#187;</text><ellipse cx="18" cy="354.7188" fill="#000000" rx="3" ry="3" style="stroke:#000000;stroke-width:1;"/><text fill="#000000" font-family="sans-serif" font-size="12" lengthAdjust="spacing" textLength="272.6016" x="26" y="357.373">role : enum(OWNER, ADMIN, FINANCE, TECH)</text><ellipse cx="18" cy="368.6875" fill="#000000" rx="3" ry="3" style="stroke:#000000;stroke-width:1;"/><text fill="#000000" font-family="sans-serif" font-size="12" lengthAdjust="spacing" textLength="123.8496" x="26" y="371.3418">name : varchar(255)</text><ellipse cx="18" cy="382.6563" fill="#000000" rx="3" ry="3" style="stroke:#000000;stroke-width:1;"/><text fill="#000000" font-family="sans-serif" font-size="12" lengthAdjust="spacing" textLength="122.9121" x="26" y="385.3105">email : varchar(255)</text><text fill="#000000" font-family="sans-serif" font-size="12" lengthAdjust="spacing" textLength="119.7363" x="26" y="399.2793">phone : varchar(20)</text></g><!--class ba--><g class="entity" data-entity="ba" data-source-line="99" data-uid="ent0004" id="entity_ba"><rect fill="#F1F1F1" height="143.7813" rx="2.5" ry="2.5" style="stroke:#181818;stroke-width:0.5;" width="175.7734" x="499" y="480.2969"/><ellipse cx="538.2853" cy="495.2969" fill="#ADD1B2" rx="10" ry="10" style="stroke:#181818;stroke-width:1;"/><path d="M540.7228,499.7969 L535.2696,499.7969 L535.2696,491.0469 L540.7228,491.0469 L540.7228,492.5781 L537.004,492.5781 L537.004,494.4531 L540.3634,494.4531 L540.3634,495.9844 L537.004,495.9844 L537.004,498.2656 L540.7228,498.2656 L540.7228,499.7969 Z " fill="#000000"/><text fill="#000000" font-family="sans-serif" font-size="12" lengthAdjust="spacing" textLength="89.584" x="556.9042" y="499.4512">bank_accounts</text><line style="stroke:#181818;stroke-width:0.5;" x1="500" x2="673.7734" y1="510.2969" y2="510.2969"/><ellipse cx="510" cy="522.7813" fill="#000000" rx="3" ry="3" style="stroke:#000000;stroke-width:1;"/><text fill="#000000" font-family="sans-serif" font-size="12" lengthAdjust="spacing" textLength="136.1953" x="518" y="525.4355">account_id : uuid &#171;PK&#187;</text><line style="stroke:#181818;stroke-width:1;" x1="500" x2="673.7734" y1="532.2656" y2="532.2656"/><ellipse cx="510" cy="544.75" fill="#000000" rx="3" ry="3" style="stroke:#000000;stroke-width:1;"/><text fill="#000000" font-family="sans-serif" font-size="12" lengthAdjust="spacing" textLength="145.9277" x="518" y="547.4043">merchant_id : uuid &#171;FK&#187;</text><ellipse cx="510" cy="558.7188" fill="#000000" rx="3" ry="3" style="stroke:#000000;stroke-width:1;"/><text fill="#000000" font-family="sans-serif" font-size="12" lengthAdjust="spacing" textLength="108.0938" x="518" y="561.373">iban : varchar(34)</text><ellipse cx="510" cy="572.6875" fill="#000000" rx="3" ry="3" style="stroke:#000000;stroke-width:1;"/><text fill="#000000" font-family="sans-serif" font-size="12" lengthAdjust="spacing" textLength="99.7324" x="518" y="575.3418">bic : varchar(11)</text><ellipse cx="510" cy="586.6563" fill="#000000" rx="3" ry="3" style="stroke:#000000;stroke-width:1;"/><text fill="#000000" font-family="sans-serif" font-size="12" lengthAdjust="spacing" textLength="107.918" x="518" y="589.3105">currency : char(3)</text><ellipse cx="510" cy="600.625" fill="#000000" rx="3" ry="3" style="stroke:#000000;stroke-width:1;"/><text fill="#000000" font-family="sans-serif" font-size="12" lengthAdjust="spacing" textLength="122.1973" x="518" y="603.2793">is_primary : boolean</text><text fill="#000000" font-family="sans-serif" font-size="12" lengthAdjust="spacing" textLength="150.7734" x="518" y="617.248">verified_at : timestamptz</text></g><!--class ak--><g class="entity" data-entity="ak" data-source-line="110" data-uid="ent0005" id="entity_ak"><rect fill="#F1F1F1" height="157.75" rx="2.5" ry="2.5" style="stroke:#181818;stroke-width:0.5;" width="220.5098" x="411.5" y="262.2969"/><ellipse cx="491.7598" cy="277.2969" fill="#ADD1B2" rx="10" ry="10" style="stroke:#181818;stroke-width:1;"/><path d="M494.1973,281.7969 L488.7441,281.7969 L488.7441,273.0469 L494.1973,273.0469 L494.1973,274.5781 L490.4785,274.5781 L490.4785,276.4531 L493.8379,276.4531 L493.8379,277.9844 L490.4785,277.9844 L490.4785,280.2656 L494.1973,280.2656 L494.1973,281.7969 Z " fill="#000000"/><text fill="#000000" font-family="sans-serif" font-size="12" lengthAdjust="spacing" textLength="51.9902" x="510.7598" y="281.4512">api_keys</text><line style="stroke:#181818;stroke-width:0.5;" x1="412.5" x2="631.0098" y1="292.2969" y2="292.2969"/><ellipse cx="422.5" cy="304.7813" fill="#000000" rx="3" ry="3" style="stroke:#000000;stroke-width:1;"/><text fill="#000000" font-family="sans-serif" font-size="12" lengthAdjust="spacing" textLength="109.8223" x="430.5" y="307.4355">key_id : uuid &#171;PK&#187;</text><line style="stroke:#181818;stroke-width:1;" x1="412.5" x2="631.0098" y1="314.2656" y2="314.2656"/><ellipse cx="422.5" cy="326.75" fill="#000000" rx="3" ry="3" style="stroke:#000000;stroke-width:1;"/><text fill="#000000" font-family="sans-serif" font-size="12" lengthAdjust="spacing" textLength="145.9277" x="430.5" y="329.4043">merchant_id : uuid &#171;FK&#187;</text><ellipse cx="422.5" cy="340.7188" fill="#000000" rx="3" ry="3" style="stroke:#000000;stroke-width:1;"/><text fill="#000000" font-family="sans-serif" font-size="12" lengthAdjust="spacing" textLength="195.5098" x="430.5" y="343.373">environment : enum(TEST, LIVE)</text><ellipse cx="422.5" cy="354.6875" fill="#000000" rx="3" ry="3" style="stroke:#000000;stroke-width:1;"/><text fill="#000000" font-family="sans-serif" font-size="12" lengthAdjust="spacing" textLength="116.7773" x="430.5" y="357.3418">prefix : varchar(10)</text><ellipse cx="422.5" cy="368.6563" fill="#000000" rx="3" ry="3" style="stroke:#000000;stroke-width:1;"/><text fill="#000000" font-family="sans-serif" font-size="12" lengthAdjust="spacing" textLength="118.6348" x="430.5" y="371.3105">hash : varchar(255)</text><ellipse cx="422.5" cy="382.625" fill="#000000" rx="3" ry="3" style="stroke:#000000;stroke-width:1;"/><text fill="#000000" font-family="sans-serif" font-size="12" lengthAdjust="spacing" textLength="115.8164" x="430.5" y="385.2793">permissions : jsonb</text><text fill="#000000" font-family="sans-serif" font-size="12" lengthAdjust="spacing" textLength="151.4355" x="430.5" y="399.248">created_at : timestamptz</text><text fill="#000000" font-family="sans-serif" font-size="12" lengthAdjust="spacing" textLength="154.1719" x="430.5" y="413.2168">revoked_at : timestamptz</text></g><!--class ps--><g class="entity" data-entity="ps" data-source-line="122" data-uid="ent0006" id="entity_ps"><rect fill="#F1F1F1" height="129.8125" rx="2.5" ry="2.5" style="stroke:#181818;stroke-width:0.5;" width="299.0898" x="667.5" y="276.2969"/><ellipse cx="759.168" cy="291.2969" fill="#ADD1B2" rx="10" ry="10" style="stroke:#181818;stroke-width:1;"/><path d="M761.6055,295.7969 L756.1523,295.7969 L756.1523,287.0469 L761.6055,287.0469 L761.6055,288.5781 L757.8867,288.5781 L757.8867,290.4531 L761.2461,290.4531 L761.2461,291.9844 L757.8867,291.9844 L757.8867,294.2656 L761.6055,294.2656 L761.6055,295.7969 Z " fill="#000000"/><text fill="#000000" font-family="sans-serif" font-size="12" lengthAdjust="spacing" textLength="107.7539" x="778.168" y="295.4512">payout_schedules</text><line style="stroke:#181818;stroke-width:0.5;" x1="668.5" x2="965.5898" y1="306.2969" y2="306.2969"/><ellipse cx="678.5" cy="318.7813" fill="#000000" rx="3" ry="3" style="stroke:#000000;stroke-width:1;"/><text fill="#000000" font-family="sans-serif" font-size="12" lengthAdjust="spacing" textLength="142.166" x="686.5" y="321.4355">schedule_id : uuid &#171;PK&#187;</text><line style="stroke:#181818;stroke-width:1;" x1="668.5" x2="965.5898" y1="328.2656" y2="328.2656"/><ellipse cx="678.5" cy="340.75" fill="#000000" rx="3" ry="3" style="stroke:#000000;stroke-width:1;"/><text fill="#000000" font-family="sans-serif" font-size="12" lengthAdjust="spacing" textLength="145.9277" x="686.5" y="343.4043">merchant_id : uuid &#171;FK&#187;</text><ellipse cx="678.5" cy="354.7188" fill="#000000" rx="3" ry="3" style="stroke:#000000;stroke-width:1;"/><text fill="#000000" font-family="sans-serif" font-size="12" lengthAdjust="spacing" textLength="135.8613" x="686.5" y="357.373">account_id : uuid &#171;FK&#187;</text><ellipse cx="678.5" cy="368.6875" fill="#000000" rx="3" ry="3" style="stroke:#000000;stroke-width:1;"/><text fill="#000000" font-family="sans-serif" font-size="12" lengthAdjust="spacing" textLength="274.0898" x="686.5" y="371.3418">frequency : enum(DAILY, WEEKLY, MONTHLY)</text><ellipse cx="678.5" cy="382.6563" fill="#000000" rx="3" ry="3" style="stroke:#000000;stroke-width:1;"/><text fill="#000000" font-family="sans-serif" font-size="12" lengthAdjust="spacing" textLength="169.9922" x="686.5" y="385.3105">min_amount : decimal(12,2)</text><text fill="#000000" font-family="sans-serif" font-size="12" lengthAdjust="spacing" textLength="179.9824" x="686.5" y="399.2793">next_payout_at : timestamptz</text></g><!--class d--><g class="entity" data-entity="d" data-source-line="132" data-uid="ent0007" id="entity_d"><rect fill="#F1F1F1" height="157.75" rx="2.5" ry="2.5" style="stroke:#181818;stroke-width:0.5;" width="351.9766" x="1002" y="262.2969"/><ellipse cx="1148.6055" cy="277.2969" fill="#ADD1B2" rx="10" ry="10" style="stroke:#181818;stroke-width:1;"/><path d="M1151.043,281.7969 L1145.5898,281.7969 L1145.5898,273.0469 L1151.043,273.0469 L1151.043,274.5781 L1147.3242,274.5781 L1147.3242,276.4531 L1150.6836,276.4531 L1150.6836,277.9844 L1147.3242,277.9844 L1147.3242,280.2656 L1151.043,280.2656 L1151.043,281.7969 Z " fill="#000000"/><text fill="#000000" font-family="sans-serif" font-size="12" lengthAdjust="spacing" textLength="50.7656" x="1167.6055" y="281.4512">disputes</text><line style="stroke:#181818;stroke-width:0.5;" x1="1003" x2="1352.9766" y1="292.2969" y2="292.2969"/><ellipse cx="1013" cy="304.7813" fill="#000000" rx="3" ry="3" style="stroke:#000000;stroke-width:1;"/><text fill="#000000" font-family="sans-serif" font-size="12" lengthAdjust="spacing" textLength="132.9023" x="1021" y="307.4355">dispute_id : uuid &#171;PK&#187;</text><line style="stroke:#181818;stroke-width:1;" x1="1003" x2="1352.9766" y1="314.2656" y2="314.2656"/><ellipse cx="1013" cy="326.75" fill="#000000" rx="3" ry="3" style="stroke:#000000;stroke-width:1;"/><text fill="#000000" font-family="sans-serif" font-size="12" lengthAdjust="spacing" textLength="145.9277" x="1021" y="329.4043">merchant_id : uuid &#171;FK&#187;</text><ellipse cx="1013" cy="340.7188" fill="#000000" rx="3" ry="3" style="stroke:#000000;stroke-width:1;"/><text fill="#000000" font-family="sans-serif" font-size="12" lengthAdjust="spacing" textLength="74.1973" x="1021" y="343.373">txn_id : uuid</text><ellipse cx="1013" cy="354.6875" fill="#000000" rx="3" ry="3" style="stroke:#000000;stroke-width:1;"/><text fill="#000000" font-family="sans-serif" font-size="12" lengthAdjust="spacing" textLength="284.7891" x="1021" y="357.3418">type : enum(CHARGEBACK, INQUIRY, PRE_ARB)</text><ellipse cx="1013" cy="368.6563" fill="#000000" rx="3" ry="3" style="stroke:#000000;stroke-width:1;"/><text fill="#000000" font-family="sans-serif" font-size="12" lengthAdjust="spacing" textLength="326.9766" x="1021" y="371.3105">status : enum(OPEN, EVIDENCE_NEEDED, WON, LOST)</text><ellipse cx="1013" cy="382.625" fill="#000000" rx="3" ry="3" style="stroke:#000000;stroke-width:1;"/><text fill="#000000" font-family="sans-serif" font-size="12" lengthAdjust="spacing" textLength="141.3633" x="1021" y="385.2793">amount : decimal(12,2)</text><text fill="#000000" font-family="sans-serif" font-size="12" lengthAdjust="spacing" textLength="139.0313" x="1021" y="399.248">deadline : timestamptz</text><text fill="#000000" font-family="sans-serif" font-size="12" lengthAdjust="spacing" textLength="151.4355" x="1021" y="413.2168">created_at : timestamptz</text></g><!--link m to mc--><g class="link" data-entity-1="m" data-entity-2="mc" data-source-line="144" data-uid="lnk8" id="link_m_mc"><path codeLine="144" d="M382.7203,206.4929 C341.6803,230.7129 319.3521,243.8889 280.1221,267.0389" fill="none" id="m-mc" style="stroke:#181818;stroke-width:1;"/><line style="stroke:#181818;stroke-width:1;" x1="384.1322" x2="388.1982" y1="201.015" y2="207.9047"/><line style="stroke:#181818;stroke-width:1;" x1="381.5485" x2="385.6145" y1="202.5398" y2="209.4295"/><line style="stroke:#181818;stroke-width:1;" x1="382.7203" x2="389.61" y1="206.4929" y2="202.4269"/><line style="stroke:#181818;stroke-width:1;" x1="271.5098" x2="267.6693" y1="272.1211" y2="281.3542"/><line style="stroke:#181818;stroke-width:1;" x1="271.5098" x2="261.5707" y1="272.1211" y2="271.0195"/><line style="stroke:#181818;stroke-width:1;" x1="271.5098" x2="264.62" y1="272.1211" y2="276.1869"/><ellipse cx="276.6772" cy="269.0718" fill="none" rx="4" ry="4" style="stroke:#181818;stroke-width:1;"/></g><!--link m to ba--><g class="link" data-entity-1="m" data-entity-2="ba" data-source-line="145" data-uid="lnk9" id="link_m_ba"><path codeLine="145" d="M426.17,208.6034 C410.91,226.5634 402.47,240.6969 394,262.2969 C368.35,327.6669 361.12,358.2469 394,420.2969 C416.42,462.6069 443.4523,485.2703 483.1123,506.5703" fill="none" id="m-ba" style="stroke:#181818;stroke-width:1;"/><line style="stroke:#181818;stroke-width:1;" x1="425.7117" x2="431.8083" y1="202.9651" y2="208.1451"/><line style="stroke:#181818;stroke-width:1;" x1="423.7692" x2="429.8658" y1="205.2513" y2="210.4313"/><line style="stroke:#181818;stroke-width:1;" x1="426.17" x2="431.35" y1="208.6034" y2="202.5069"/><line style="stroke:#181818;stroke-width:1;" x1="491.9221" x2="501.8089" y1="511.3017" y2="509.801"/><line style="stroke:#181818;stroke-width:1;" x1="491.9221" x2="496.1311" y1="511.3017" y2="520.3728"/><line style="stroke:#181818;stroke-width:1;" x1="491.9221" x2="498.97" y1="511.3017" y2="515.0869"/><ellipse cx="486.6362" cy="508.4628" fill="none" rx="4" ry="4" style="stroke:#181818;stroke-width:1;"/></g><!--link m to ak--><g class="link" data-entity-1="m" data-entity-2="ak" data-source-line="146" data-uid="lnk10" id="link_m_ak"><path codeLine="146" d="M522,210.5869 C522,230.0169 522,224.8569 522,244.2769" fill="none" id="m-ak" style="stroke:#181818;stroke-width:1;"/><line style="stroke:#181818;stroke-width:1;" x1="518" x2="526" y1="206.5869" y2="206.5869"/><line style="stroke:#181818;stroke-width:1;" x1="518" x2="526" y1="209.5869" y2="209.5869"/><line style="stroke:#181818;stroke-width:1;" x1="522" x2="522" y1="210.5869" y2="202.5869"/><line style="stroke:#181818;stroke-width:1;" x1="522" x2="528" y1="254.2769" y2="262.2769"/><line style="stroke:#181818;stroke-width:1;" x1="522" x2="516" y1="254.2769" y2="262.2769"/><line style="stroke:#181818;stroke-width:1;" x1="522" x2="522" y1="254.2769" y2="262.2769"/><ellipse cx="522" cy="248.2769" fill="none" rx="4" ry="4" style="stroke:#181818;stroke-width:1;"/></g><!--link m to ps--><g class="link" data-entity-1="m" data-entity-2="ps" data-source-line="147" data-uid="lnk11" id="link_m_ps"><path codeLine="147" d="M635.3755,207.312 C668.3555,231.452 683.2871,242.3927 714.8071,265.4727" fill="none" id="m-ps" style="stroke:#181818;stroke-width:1;"/><line style="stroke:#181818;stroke-width:1;" x1="629.7852" x2="634.5103" y1="208.1772" y2="201.7217"/><line style="stroke:#181818;stroke-width:1;" x1="632.206" x2="636.9311" y1="209.9491" y2="203.4936"/><line style="stroke:#181818;stroke-width:1;" x1="635.3755" x2="628.92" y1="207.312" y2="202.5869"/><line style="stroke:#181818;stroke-width:1;" x1="722.8754" x2="732.8747" y1="271.3806" y2="271.2659"/><line style="stroke:#181818;stroke-width:1;" x1="722.8754" x2="725.7853" y1="271.3806" y2="280.9478"/><line style="stroke:#181818;stroke-width:1;" x1="722.8754" x2="729.33" y1="271.3806" y2="276.1069"/><ellipse cx="718.0344" cy="267.8359" fill="none" rx="4" ry="4" style="stroke:#181818;stroke-width:1;"/></g><!--link m to d--><g class="link" data-entity-1="m" data-entity-2="d" data-source-line="148" data-uid="lnk12" id="link_m_d"><path codeLine="148" d="M679.8361,167.5408 C770.7561,193.3408 880.98,226.2869 984,262.2969 C989.91,264.3669 978.997,260.3465 985.037,262.5465" fill="none" id="m-d" style="stroke:#181818;stroke-width:1;"/><line style="stroke:#181818;stroke-width:1;" x1="674.8961" x2="677.08" y1="170.2969" y2="162.6008"/><line style="stroke:#181818;stroke-width:1;" x1="677.7822" x2="679.9661" y1="171.1159" y2="163.4197"/><line style="stroke:#181818;stroke-width:1;" x1="679.8361" x2="672.14" y1="167.5408" y2="165.3569"/><line style="stroke:#181818;stroke-width:1;" x1="994.4331" x2="1004.0035" y1="265.9689" y2="263.0692"/><line style="stroke:#181818;stroke-width:1;" x1="994.4331" x2="999.8965" y1="265.9689" y2="274.3445"/><line style="stroke:#181818;stroke-width:1;" x1="994.4331" x2="1001.95" y1="265.9689" y2="268.7069"/><ellipse cx="988.7954" cy="263.9155" fill="none" rx="4" ry="4" style="stroke:#181818;stroke-width:1;"/></g><!--link ps to ba--><g class="link" data-entity-1="ps" data-entity-2="ba" data-source-line="149" data-uid="lnk13" id="link_ps_ba"><path codeLine="149" d="M733.1083,418.5319 C707.4883,441.8119 697.6409,450.7571 671.3809,474.6171" fill="none" id="ps-ba" style="stroke:#181818;stroke-width:1;"/><line style="stroke:#181818;stroke-width:1;" x1="740.5092" x2="742.395" y1="411.8069" y2="401.9863"/><line style="stroke:#181818;stroke-width:1;" x1="740.5092" x2="750.465" y1="411.8069" y2="410.8675"/><line style="stroke:#181818;stroke-width:1;" x1="740.5092" x2="746.43" y1="411.8069" y2="406.4269"/><ellipse cx="736.0686" cy="415.8419" fill="none" rx="4" ry="4" style="stroke:#181818;stroke-width:1;"/><line style="stroke:#181818;stroke-width:1;" x1="671.1104" x2="665.7306" y1="480.2674" y2="474.3465"/><line style="stroke:#181818;stroke-width:1;" x1="673.3307" x2="667.9509" y1="478.25" y2="472.3291"/><line style="stroke:#181818;stroke-width:1;" x1="671.3809" x2="665.46" y1="474.6171" y2="479.9969"/></g><!--SRC=[fLPjJzj84FwUNp7agWEgH0eGeA2sabys43MnStOenoThOozaBtwxzOQIbaht8-uNtY-vyKjYapXfHOrGrZEpCyypEplZVVZm2qzZ7wXmfssFqmT1WmJab0KC_lldNxXZlXzzWT_XTiebWvZwJ4g66svivOfSmXuFNN_kCTp24xZdFWELz4oBf3v0wuBF9uAA1HHskFENaEB-ThiD8oQIA4pITMFlpOXOjcauwfMZcGFJWW_G_AsdaxDtIhFKzanZND6VP4z5hvgMJgoAXNvnVjuvQov3sej4ic0PqhwpnsIu5fBqJhJpPgdT6dAv-mSXjIYKb8V8jOYgeKEbR-2UBO5BWwsnApv-DZpewYO2NLq3eUadNRsvRlCJE59Fwr3Kxkb9vw829OYZa8Mon34ScGP1t-kPkD0Azqk37GXMFjR3QyexfTDTXITFaecG-cjrH_uS4yjG1avj0PxYNxTPOxO6w2nxwWmtO26gumko2UjbRQxSr1Rf9gpwQgs1jQrijy7QgD-Lfss5l0bkQqNNuDjHsjiXhXLMnLbzXTL1t59gjH2trjmQH8lvL78ijYcFb-0iCd36wAkow_pT-T6PrYoK0sHVKLuSTpkTqgKQpKEF2iwM_bJpnj0Lwwwc1rIKB_dtUYfHowuuus5Ciw5nGEFOvym3Ue_9JNj_qVCFisZxC9woXE6aOU2nUomBj4o0GYmYbtbp52SHF7Bs9G6NXlZl-zaWAlmLysGvH_RARMyK3BmeaHmSDW2IvIjCg3jx42brBV8Z0Ia5V5xO820wzsKF2zQWEFgQDdk86DpqcorG1AT-2n8Q9ks42Nw_RQVDlp8uEdwXzja32ptuXa80jGO99ZFNHS9Zef3dXv39KyU5DEzSAsaUxWZVlpVsCCWg8Or6JKOQaaiSpaRqI4TqaSts8SEXJqC9GnhI1vpukDIff32CFEOt6lZEvGAQGM6NDDC32p8oRs4fTRW7bp2Vuy_xzwDF7p-Y5eyxDGdJL5x2O_fnGSN1yUdfOIR7f53VATpNw1D9vJn13GldmO6YZVkVIGli6tj439teBT06fatqt5XoB8x2r1uh5bwq5bnPvktukWLuqOWrilesIOq3rtLSv5Q9sKtbNzWaIRzkIl5ffvCgNC6eP9v39Uea3nWY2sBvjV5zCple6RkTkyoIMwIfaEx8KcqYUxd9Mn2HpvRqp5iZ9QVemxxHWbxVK0mD4pCcslNXpeIpW79_Kn5FiVLLnKYwmcn2mvb3NHSBjc0reGMhGlfgLXnzLmAVT7ES4-vMf4T7kTIT2y52DosLt3eNyyI91G_IZyjBc4IO9ngYuZ6zelm7XqPZxipO8cT5PmKhbBoQ4GiVkOZ2x18LnpKczhW50opU770iiEqzLGbsSiMK9jEwOukP27YIf4C0rN_XbyTaLr422FOOpNv0FQQBQ2wTn9rYi_1PdWASC7aAbk9Nvw6kCbRAUy7-dXT7cQL8L_g3knRS4l8f_HtY_BmUtENi0nuwD4YTeRN7N3ng_-3ek7MSgaFs99s2oYws7a_YkInOUWN9GlXgZl8fB1MvP16lRgbshLXNH5MqJote6t_Sz2raDhA8erXgNNypiQjXf_hSrmbUPySW9EjnjoPAiS-DyprRC-4nwlaykySlYs5NymhW-RdTZhvXdohN4rgkwQnSnqcvzXfOAj-ZTllvERN_7m00]--></g></svg>